<?xml version="1.0" encoding="UTF-8" ?>
<!DOCTYPE svg PUBLIC "-//W3C//DTD SVG 1.1//EN" "http://www.w3.org/Graphics/SVG/1.1/DTD/svg11.dtd">
<svg width="1100pt" height="868pt" viewBox="0 0 1100 868" version="1.1" xmlns="http://www.w3.org/2000/svg">
<path fill="#990000" opacity="1.00" d=" M 645.96 57.18 C 648.37 20.07 697.41 -1.24 728.28 15.91 C 713.86 22.08 700.69 33.68 697.47 49.61 C 692.31 76.97 705.71 103.21 718.66 126.33 C 754.03 184.90 803.98 232.91 855.45 277.24 C 850.13 285.51 844.63 293.73 838.10 301.10 C 835.08 299.03 832.04 296.99 829.01 294.98 C 785.93 263.40 746.54 226.79 711.73 186.27 C 687.93 157.96 665.04 127.87 652.11 92.86 C 647.63 81.53 645.47 69.37 645.96 57.18 Z" />
<path fill="#ec1c24" opacity="1.00" d=" M 697.47 49.61 C 700.69 33.68 713.86 22.08 728.28 15.91 C 754.51 27.28 770.87 53.68 783.86 78.13 C 791.67 92.93 797.82 108.52 803.95 124.07 C 811.44 145.40 817.19 167.29 822.76 189.14 C 824.84 171.20 829.08 153.53 834.18 136.22 C 837.43 124.31 841.02 112.48 845.88 101.11 C 875.13 74.66 908.71 53.73 942.04 32.90 C 949.77 39.07 956.12 48.10 955.92 58.37 C 958.81 90.87 945.07 121.32 931.66 150.01 C 925.95 161.75 920.07 173.40 914.05 184.99 C 895.89 216.56 877.06 247.88 855.45 277.24 C 803.98 232.91 754.03 184.90 718.66 126.33 C 705.71 103.21 692.31 76.97 697.47 49.61 Z" />
<path fill="#990000" opacity="1.00" d=" M 900.96 28.05 C 914.27 21.87 930.15 25.00 942.04 32.90 C 908.71 53.73 875.13 74.66 845.88 101.11 C 856.60 72.68 871.57 40.87 900.96 28.05 Z" />
<path fill="#000000" opacity="1.00" d=" M 336.10 152.10 C 424.53 86.24 536.22 54.12 645.96 57.18 C 645.47 69.37 647.63 81.53 652.11 92.86 C 537.38 88.89 419.33 125.02 332.45 201.46 C 265.36 259.70 218.66 344.27 215.99 434.09 C 213.15 486.91 225.56 540.02 249.64 586.98 C 271.06 628.15 300.32 665.34 336.01 695.08 C 329.20 676.85 337.03 658.89 336.54 641.00 C 331.83 624.21 329.19 603.97 339.98 588.97 C 349.12 574.64 366.03 569.40 381.18 564.10 C 429.66 551.15 484.30 553.88 526.96 523.93 C 487.63 563.11 427.68 565.10 380.39 590.39 C 364.66 596.86 353.69 613.91 359.12 631.10 C 392.13 595.48 441.50 582.23 488.18 577.03 C 446.04 595.15 402.03 614.93 372.23 651.23 C 363.79 662.98 357.25 679.00 362.68 693.26 C 384.62 645.60 434.85 619.98 483.40 607.29 C 448.62 631.01 412.10 656.28 390.53 693.50 C 379.12 711.63 377.92 738.74 395.80 753.07 C 403.37 693.83 455.06 654.86 501.98 624.96 C 544.62 598.37 593.52 566.23 600.88 511.84 C 607.04 537.70 602.37 565.94 586.22 587.23 C 555.11 629.74 505.45 651.94 468.16 687.99 C 448.62 705.76 431.66 727.17 422.06 751.97 C 513.59 798.21 620.78 811.28 721.32 793.31 C 842.97 771.39 960.18 699.13 1017.20 587.01 C 1064.95 496.59 1062.05 382.56 1010.78 294.22 C 986.08 252.01 953.40 214.13 914.05 184.99 C 920.07 173.40 925.95 161.75 931.66 150.01 C 933.29 153.01 935.58 155.59 938.30 157.69 C 1006.27 209.74 1057.59 284.29 1078.35 367.63 C 1090.99 424.58 1091.25 485.09 1074.13 541.15 C 1051.72 617.69 1003.55 685.93 940.44 734.45 C 794.19 849.20 582.80 868.51 415.74 789.25 C 409.66 784.86 412.31 795.72 411.89 798.84 C 391.84 794.32 371.43 782.61 362.51 763.36 C 361.83 761.74 359.90 761.85 358.52 762.36 C 321.38 781.40 284.09 800.20 246.88 819.07 C 241.08 807.02 234.19 795.49 228.77 783.28 C 260.81 766.60 293.37 750.95 325.20 733.86 C 311.54 722.33 298.02 709.68 284.94 698.09 C 246.98 716.31 209.59 736.18 171.85 755.12 C 166.29 742.95 159.18 731.53 153.74 719.31 C 187.25 702.29 220.62 684.95 254.27 668.25 C 255.81 667.35 258.15 665.68 256.20 663.88 C 218.72 616.94 193.76 560.22 183.85 501.05 C 155.14 526.21 124.95 551.58 88.37 564.34 C 60.23 574.99 22.52 564.57 10.36 535.48 C 2.29 514.87 21.76 498.60 37.58 489.59 C 76.83 467.34 121.49 457.01 165.04 446.86 C 122.60 436.73 77.75 422.68 47.36 389.63 C 28.49 369.30 36.50 334.97 59.92 321.98 C 74.43 314.34 91.00 322.09 104.31 328.70 C 134.31 346.38 159.42 371.26 182.30 397.23 C 198.71 299.46 256.04 210.18 336.10 152.10 M 67.78 337.41 C 57.69 337.56 54.86 350.68 63.25 355.83 C 75.22 363.90 97.94 373.15 108.50 359.15 C 109.03 340.69 81.58 336.21 67.78 337.41 M 27.62 523.45 C 40.81 536.60 62.70 525.81 73.88 514.71 C 82.86 508.75 76.07 496.17 66.63 497.95 C 51.13 498.24 30.15 506.04 27.62 523.45 Z" />
<path fill="#000000" opacity="1.00" d=" M 783.86 78.13 C 805.00 84.48 824.94 94.39 845.88 101.11 C 841.02 112.48 837.43 124.31 834.18 136.22 C 824.06 132.27 814.45 126.99 803.95 124.07 C 797.82 108.52 791.67 92.93 783.86 78.13 Z" />
<path fill="#ffffff" opacity="1.00" d=" M 332.45 201.46 C 419.33 125.02 537.38 88.89 652.11 92.86 C 665.04 127.87 687.93 157.96 711.73 186.27 C 674.71 158.28 631.31 128.39 582.44 135.24 C 572.44 137.67 554.23 142.00 558.57 156.10 C 567.59 170.41 583.85 177.71 598.04 185.97 C 673.60 225.31 754.84 252.84 829.01 294.98 C 832.04 296.99 835.08 299.03 838.10 301.10 C 844.63 293.73 850.13 285.51 855.45 277.24 C 877.06 247.88 895.89 216.56 914.05 184.99 C 953.40 214.13 986.08 252.01 1010.78 294.22 C 1062.05 382.56 1064.95 496.59 1017.20 587.01 C 960.58 639.03 893.22 679.65 819.59 702.54 C 789.17 717.37 756.57 700.51 725.01 703.65 C 712.08 706.41 711.70 724.61 699.14 727.58 C 662.43 730.13 628.13 710.40 591.39 713.09 C 582.17 714.12 576.53 722.89 567.98 725.47 C 528.22 733.43 508.29 680.10 468.16 687.99 C 505.45 651.94 555.11 629.74 586.22 587.23 C 602.37 565.94 607.04 537.70 600.88 511.84 C 593.52 566.23 544.62 598.37 501.98 624.96 C 455.06 654.86 403.37 693.83 395.80 753.07 C 377.92 738.74 379.12 711.63 390.53 693.50 C 412.10 656.28 448.62 631.01 483.40 607.29 C 434.85 619.98 384.62 645.60 362.68 693.26 C 357.25 679.00 363.79 662.98 372.23 651.23 C 402.03 614.93 446.04 595.15 488.18 577.03 C 441.50 582.23 392.13 595.48 359.12 631.10 C 353.69 613.91 364.66 596.86 380.39 590.39 C 427.68 565.10 487.63 563.11 526.96 523.93 C 484.30 553.88 429.66 551.15 381.18 564.10 C 366.03 569.40 349.12 574.64 339.98 588.97 C 329.19 603.97 331.83 624.21 336.54 641.00 C 331.85 642.95 326.42 644.86 321.47 642.65 C 295.12 627.40 273.37 605.44 249.64 586.98 C 225.56 540.02 213.15 486.91 215.99 434.09 C 218.66 344.27 265.36 259.70 332.45 201.46 M 800.30 377.14 C 775.64 387.18 765.59 416.78 763.33 441.27 C 759.01 458.07 760.04 476.17 765.02 492.74 C 766.15 513.80 776.71 538.05 796.13 548.96 C 812.20 557.74 829.99 544.81 837.79 530.79 C 858.03 495.04 858.68 450.08 845.06 411.91 C 838.59 393.65 822.61 371.40 800.30 377.14 M 901.84 425.99 C 895.11 439.89 895.30 455.77 897.18 470.77 C 897.80 492.51 904.81 515.69 920.86 531.08 C 932.56 542.16 952.44 539.60 962.11 527.07 C 983.63 500.33 985.95 462.96 979.55 430.44 C 975.33 411.92 967.10 391.22 948.64 382.95 C 922.95 374.13 903.53 404.67 901.84 425.99 M 880.13 540.10 C 865.09 573.74 849.46 607.18 835.10 641.09 C 884.18 624.51 933.29 607.80 982.25 590.79 C 948.68 573.24 914.34 556.55 880.13 540.10 M 704.66 552.40 C 687.52 554.44 664.77 569.24 672.59 589.25 C 686.42 614.47 724.15 616.82 747.03 603.04 C 759.89 596.96 766.33 579.09 756.33 567.59 C 744.07 552.65 722.71 549.90 704.66 552.40 Z" />
<path fill="#ffffff" opacity="1.00" d=" M 803.95 124.07 C 814.45 126.99 824.06 132.27 834.18 136.22 C 829.08 153.53 824.84 171.20 822.76 189.14 C 817.19 167.29 811.44 145.40 803.95 124.07 Z" />
<path fill="#bbbdbf" opacity="1.00" d=" M 582.44 135.24 C 631.31 128.39 674.71 158.28 711.73 186.27 C 746.54 226.79 785.93 263.40 829.01 294.98 C 754.84 252.84 673.60 225.31 598.04 185.97 C 583.85 177.71 567.59 170.41 558.57 156.10 C 554.23 142.00 572.44 137.67 582.44 135.24 Z" />
<path fill="#ffffff" opacity="1.00" d=" M 67.78 337.41 C 81.58 336.21 109.03 340.69 108.50 359.15 C 97.94 373.15 75.22 363.90 63.25 355.83 C 54.86 350.68 57.69 337.56 67.78 337.41 Z" />
<path fill="#d0d2d3" opacity="1.00" d=" M 800.30 377.14 C 822.61 371.40 838.59 393.65 845.06 411.91 C 858.68 450.08 858.03 495.04 837.79 530.79 C 829.99 544.81 812.20 557.74 796.13 548.96 C 776.71 538.05 766.15 513.80 765.02 492.74 C 769.24 508.11 778.20 525.34 794.84 529.57 C 813.46 533.05 826.44 515.47 832.30 500.30 C 842.16 472.02 841.17 437.88 822.96 413.14 C 815.79 402.57 800.65 395.49 788.75 402.62 C 773.81 409.70 768.28 426.67 763.33 441.27 C 765.59 416.78 775.64 387.18 800.30 377.14 Z" />
<path fill="#d0d2d3" opacity="1.00" d=" M 901.84 425.99 C 903.53 404.67 922.95 374.13 948.64 382.95 C 967.10 391.22 975.33 411.92 979.55 430.44 C 985.95 462.96 983.63 500.33 962.11 527.07 C 952.44 539.60 932.56 542.16 920.86 531.08 C 904.81 515.69 897.80 492.51 897.18 470.77 C 900.53 487.46 906.60 508.88 925.22 513.78 C 941.45 518.14 953.28 502.75 958.59 489.64 C 968.57 462.06 967.50 425.46 944.10 404.85 C 926.98 391.18 906.42 408.50 901.84 425.99 Z" />
<path fill="#000000" opacity="1.00" d=" M 788.75 402.62 C 800.65 395.49 815.79 402.57 822.96 413.14 C 841.17 437.88 842.16 472.02 832.30 500.30 C 826.44 515.47 813.46 533.05 794.84 529.57 C 778.20 525.34 769.24 508.11 765.02 492.74 C 760.04 476.17 759.01 458.07 763.33 441.27 C 768.28 426.67 773.81 409.70 788.75 402.62 M 805.62 427.36 C 791.19 436.78 790.22 463.75 805.67 472.67 C 828.60 474.80 829.39 426.04 805.62 427.36 Z" />
<path fill="#000000" opacity="1.00" d=" M 901.84 425.99 C 906.42 408.50 926.98 391.18 944.10 404.85 C 967.50 425.46 968.57 462.06 958.59 489.64 C 953.28 502.75 941.45 518.14 925.22 513.78 C 906.60 508.88 900.53 487.46 897.18 470.77 C 895.30 455.77 895.11 439.89 901.84 425.99 M 939.01 426.26 C 928.46 434.87 929.27 453.41 939.63 461.80 C 958.86 464.24 959.15 422.17 939.01 426.26 Z" />
<path fill="#ffffff" opacity="1.00" d=" M 939.01 426.26 C 959.15 422.17 958.86 464.24 939.63 461.80 C 929.27 453.41 928.46 434.87 939.01 426.26 Z" />
<path fill="#ffffff" opacity="1.00" d=" M 805.62 427.36 C 829.39 426.04 828.60 474.80 805.67 472.67 C 790.22 463.75 791.19 436.78 805.62 427.36 Z" />
<path fill="#ffffff" opacity="1.00" d=" M 27.62 523.45 C 30.15 506.04 51.13 498.24 66.63 497.95 C 76.07 496.17 82.86 508.75 73.88 514.71 C 62.70 525.81 40.81 536.60 27.62 523.45 Z" />
<path fill="#faaf40" opacity="1.00" d=" M 880.13 540.10 C 914.34 556.55 948.68 573.24 982.25 590.79 C 933.29 607.80 884.18 624.51 835.10 641.09 C 849.46 607.18 865.09 573.74 880.13 540.10 Z" />
<path fill="#efb7c0" opacity="1.00" d=" M 704.66 552.40 C 722.71 549.90 744.07 552.65 756.33 567.59 C 766.33 579.09 759.89 596.96 747.03 603.04 C 724.15 616.82 686.42 614.47 672.59 589.25 C 664.77 569.24 687.52 554.44 704.66 552.40 Z" />
<path fill="#bbbdbf" opacity="1.00" d=" M 249.64 586.98 C 273.37 605.44 295.12 627.40 321.47 642.65 C 326.42 644.86 331.85 642.95 336.54 641.00 C 337.03 658.89 329.20 676.85 336.01 695.08 C 300.32 665.34 271.06 628.15 249.64 586.98 Z" />
<path fill="#bbbdbf" opacity="1.00" d=" M 819.59 702.54 C 893.22 679.65 960.58 639.03 1017.20 587.01 C 960.18 699.13 842.97 771.39 721.32 793.31 C 620.78 811.28 513.59 798.21 422.06 751.97 C 431.66 727.17 448.62 705.76 468.16 687.99 C 508.29 680.10 528.22 733.43 567.98 725.47 C 576.53 722.89 582.17 714.12 591.39 713.09 C 628.13 710.40 662.43 730.13 699.14 727.58 C 711.70 724.61 712.08 706.41 725.01 703.65 C 756.57 700.51 789.17 717.37 819.59 702.54 Z" />
</svg>
